HIERARCHY
ROOT Hips
{
  OFFSET 0 0 0
  CHANNELS 6 Xposition Yposition Zposition Zrotation Xrotation Yrotation
  JOINT Spine
  {
    OFFSET 0 10 0
    CHANNELS 3 Zrotation Xrotation Yrotation
    JOINT Neck
    {
      OFFSET 0 15 0
      CHANNELS 3 Zrotation Xrotation Yrotation
      JOINT Head
      {
        OFFSET 0 5 0
        CHANNELS 3 Zrotation Xrotation Yrotation
        End Site
        {
          OFFSET 0 3 0
        }
      }
    }
    JOINT LeftShoulder
    {
      OFFSET 5 12 0
      CHANNELS 3 Zrotation Xrotation Yrotation
      JOINT LeftElbow
      {
        OFFSET 10 0 0
        CHANNELS 3 Zrotation Xrotation Yrotation
        JOINT LeftWrist
        {
          OFFSET 8 0 0
          CHANNELS 3 Zrotation Xrotation Yrotation
          End Site
          {
            OFFSET 4 0 0
          }
        }
      }
    }
    JOINT RightShoulder
    {
      OFFSET -5 12 0
      CHANNELS 3 Zrotation Xrotation Yrotation
      JOINT RightElbow
      {
        OFFSET -10 0 0
        CHANNELS 3 Zrotation Xrotation Yrotation
        JOINT RightWrist
        {
          OFFSET -8 0 0
          CHANNELS 3 Zrotation Xrotation Yrotation
          End Site
          {
            OFFSET -4 0 0
          }
        }
      }
    }
  }
  JOINT LeftHip
  {
    OFFSET 3.5 0 0
    CHANNELS 3 Zrotation Xrotation Yrotation
    JOINT LeftKnee
    {
      OFFSET 0 -15 0
      CHANNELS 3 Zrotation Xrotation Yrotation
      JOINT LeftAnkle
      {
        OFFSET 0 -15 0
        CHANNELS 3 Zrotation Xrotation Yrotation
        End Site
        {
          OFFSET 0 -3 5
        }
      }
    }
  }
  JOINT RightHip
  {
    OFFSET -3.5 0 0
    CHANNELS 3 Zrotation Xrotation Yrotation
    JOINT RightKnee
    {
      OFFSET 0 -15 0
      CHANNELS 3 Zrotation Xrotation Yrotation
      JOINT RightAnkle
      {
        OFFSET 0 -15 0
        CHANNELS 3 Zrotation Xrotation Yrotation
        End Site
        {
          OFFSET 0 -3 5
        }
      }
    }
  }
}
MOTION
Frames: 21
Frame Time: 0.03333333333333333
38.39976042509079 -53.24133038520813 0.015367567539215088 -21.52429066357829 33.864176521079465 0.0 -0.0 0.0 0.0 -33.824068944938105 85.2662021126741 0.0 -0.0 0.0 0.0 -86.26201730289175 0.0 31.631587384061902 -79.63704778637408 0.0 -40.118405607693624 0.0 0.0 0.0 85.87057060682488 0.0 33.62053036826005 99.07977841072598 0.0 -5.070159053375002 -0.0 0.0 0.0 -13.839234630171205 104.90392488675491 0.0 -53.55320235328346 52.94950442359424 0.0 0.0 -0.0 0.0 72.12605676905484 80.0828311284503 0.0 -22.076150292146405 59.248424987251454 0.0 0.0 -0.0 0.0
42.267851531505585 -43.56410950422287 0.007047690451145172 -33.47928173144475 2.400680424622526 0.0 -0.0 0.0 0.0 -12.430408153327468 72.36130944875087 0.0 -0.0 0.0 0.0 -112.02191304205456 0.0 -48.525430242772316 44.68167058093253 0.0 -75.59446267445009 0.0 0.0 0.0 65.7274315913895 0.0 17.54248790126701 58.587282920844466 0.0 46.657698253639566 -0.0 0.0 0.0 -12.004049155836357 -1.0835663509097029 -0.0 -0.5094229713570945 72.35976481631003 0.0 0.0 -0.0 0.0 -32.83584820411207 -27.1401690236524 -0.0 -26.378465595879753 68.0059275977436 0.0 0.0 -0.0 0.0
31.156614422798157 -51.633912324905396 0.008900463581085205 -46.34749244565602 80.62273694478738 0.0 -0.0 0.0 0.0 1.2182821960718793 98.34791132438683 -0.0 -0.0 0.0 0.0 -86.49625174755433 0.0 31.48105164426929 -58.14411092497646 0.0 -57.65488006254343 0.0 0.0 0.0 80.0346616562581 0.0 24.562997846688244 120.37125331904001 0.0 2.9319903201886492 -0.0 0.0 0.0 -43.79314294649601 -23.270065164560055 -0.0 -44.50352445785735 86.4677791351179 0.0 0.0 -0.0 0.0 -33.55128092314301 -55.958149613280796 -0.0 -32.16518103362419 86.98945431416689 0.0 0.0 -0.0 0.0
35.99252849817276 -54.17007803916931 0.005580112338066101 -26.064897746622954 93.65995079148472 0.0 -0.0 0.0 0.0 9.077580190304724 96.97868795126284 -0.0 -0.0 0.0 0.0 -67.46380939769655 0.0 56.67350612825292 -73.83162924479984 0.0 -44.32980310849343 0.0 0.0 0.0 58.01216837726096 0.0 22.546140616305042 76.58521870841136 0.0 40.60328439636805 -0.0 0.0 0.0 -66.17689573314347 0.01562232825014745 0.0 -22.546869008508377 89.87580419743385 0.0 0.0 -0.0 0.0 -56.485831223429635 1.1292090960348686 0.0 -33.34494141672095 91.0798285991267 0.0 0.0 -0.0 0.0
35.51635444164276 -52.78594791889191 0.005297735333442688 -24.68504119140066 94.16755838034517 0.0 -0.0 0.0 0.0 14.077657353223428 98.8351269672594 -0.0 -0.0 0.0 0.0 -63.34833373377093 0.0 60.3709683760608 -77.97331240704291 0.0 -37.89310544093938 0.0 0.0 0.0 63.960993613608665 0.0 33.123973422874734 82.24499989864614 0.0 37.03112389207547 -0.0 0.0 0.0 -40.35413250093469 60.34636487776786 0.0 -14.542003909780176 91.31749315933858 0.0 0.0 -0.0 0.0 -39.855096033268005 56.58000306104686 0.0 -23.137309142911366 91.8763829341 0.0 0.0 -0.0 0.0
33.9881107211113 -51.66638195514679 0.007804110646247864 -37.08102537363033 92.22778935120078 0.0 -0.0 0.0 0.0 12.94785181479762 100.86872686693388 -0.0 -0.0 0.0 0.0 -77.67721585687153 0.0 30.228131048214504 -68.55382226608835 0.0 -48.030348333249115 0.0 0.0 0.0 58.71206434628001 0.0 40.32278462030178 82.54634080546826 0.0 34.64522251731511 -0.0 0.0 0.0 -13.076335150413197 -70.43713293785659 -0.0 -68.98176997163924 76.37475804073954 0.0 0.0 -0.0 0.0 -56.20652327975353 -51.77931045113557 -0.0 -13.96404159989467 87.68922159212956 0.0 0.0 -0.0 0.0
33.82774591445923 -72.31365740299225 0.012608803808689117 -0.03999293064032966 45.89363475284208 0.0 -0.0 0.0 0.0 48.88569138560207 -45.139261973430365 0.0 -0.0 0.0 0.0 -90.5598504679967 0.0 -61.88028006708088 119.00657409743461 -0.0 104.99589580343323 0.0 0.0 0.0 25.638070668784945 0.0 34.64041442693064 1.257974116216429 0.0 83.43472550555391 -0.0 0.0 0.0 -97.2344708927849 -20.54971678551387 -0.0 18.75467725638767 81.20552208551474 0.0 0.0 -0.0 0.0 -99.00521233039038 56.229724080421555 0.0 31.284312159582882 19.66728875231693 0.0 0.0 -0.0 0.0
33.471158146858215 -70.13852000236511 0.021563656628131866 -0.042139499022732785 -29.56060582893744 0.0 -0.0 0.0 0.0 40.12421498249605 33.45207395750446 -0.0 -0.0 0.0 0.0 -68.76884555006333 0.0 -60.50758477835513 -1.2461285733659118 0.0 -92.79064263577469 0.0 0.0 0.0 28.17995584614682 0.0 58.4873002563691 7.745585498532035 0.0 94.91923978225412 -0.0 0.0 0.0 -5.875813620195733 -136.6660499418057 -0.0 -10.63057180129375 53.73984345437056 0.0 0.0 -0.0 0.0 -70.08649481459928 -84.92499253624324 -0.0 31.426491827871242 -44.91103282453896 0.0 0.0 -0.0 0.0
33.71885269880295 -69.77136433124542 0.019803643226623535 1.136272246161591 -23.90093915402026 0.0 -0.0 0.0 0.0 43.92745295509336 10.240983763502856 -0.0 -0.0 0.0 0.0 -56.729439304057344 0.0 -77.80741110329915 93.17871339178453 0.0 -34.254089352705 0.0 0.0 0.0 22.95504484422641 0.0 68.96763999553146 -10.726778589704708 0.0 85.19728661210476 -0.0 0.0 0.0 97.48064145842109 -88.3635000030156 0.0 33.540230921312656 70.97900348467691 0.0 0.0 -0.0 0.0 -107.2556172995127 -21.773705501649587 -0.0 68.09904313617572 -11.251189909331348 0.0 0.0 -0.0 0.0
34.57265496253967 -69.23931539058685 0.01904961245600134 2.07752573344674 -34.103124317152876 0.0 -0.0 0.0 0.0 24.084490120097755 62.344382899920035 -0.0 -0.0 0.0 0.0 -78.70048348455063 0.0 -31.852426934791595 -23.20454926614564 0.0 -87.95881440943788 0.0 0.0 0.0 52.633474617382056 0.0 29.006237741574296 -15.258333695967611 0.0 50.10647969465268 -0.0 0.0 0.0 119.38875536701704 -16.532749005650565 0.0 70.2415780321043 21.383379337580962 0.0 0.0 -0.0 0.0 -125.20543044567866 -70.98173008668269 -0.0 -24.434225255790352 -80.81604368240357 -0.0 0.0 -0.0 0.0
35.38898676633835 -69.9236810207367 0.010402081534266472 1.9162244807934663 6.83411408416171 -0.0 -0.0 0.0 0.0 38.93479137156647 10.938865094899503 -0.0 -0.0 0.0 0.0 -73.9977344038841 0.0 -42.643134009107875 -78.1778465337994 0.0 -37.55582069880093 0.0 0.0 0.0 37.31107225329429 0.0 57.89761836795085 -11.761483694417937 0.0 66.47828395564997 -0.0 0.0 0.0 71.9796782075364 48.30403529902606 0.0 73.62879429549305 63.33656894473957 0.0 0.0 -0.0 0.0 -29.99251711625288 -90.16139051385031 -0.0 -1.9303368440450064 11.04154852936177 0.0 0.0 -0.0 0.0
36.4179790019989 -62.30965256690979 0.02290196716785431 -6.589534749375611 -9.220279404054931 0.0 -0.0 0.0 0.0 -20.636549136784083 57.4989836606884 0.0 -0.0 0.0 0.0 -87.85452553903254 0.0 -5.365348755405552 -81.26127297081563 0.0 -37.14227097825304 0.0 0.0 0.0 83.2727644162974 0.0 20.68703292855347 87.44404815310338 0.0 -7.2521528907670625 -0.0 0.0 0.0 -29.688208640230744 59.27775173517607 0.0 -22.880242015956707 -44.5518946399347 -0.0 0.0 -0.0 0.0 62.10363727492478 -1.1333211729214057 0.0 -20.84011100763246 48.452863772491945 0.0 0.0 -0.0 0.0
38.82494121789932 -64.30932283401489 0.006901472806930542 2.2771713042285073 16.459839251880375 -0.0 -0.0 0.0 0.0 2.732455771636595 69.66068050633571 -0.0 -0.0 0.0 0.0 -75.5407233230177 0.0 9.582538925597673 -55.013421221735875 0.0 -57.703136916055946 0.0 0.0 0.0 85.21804036524094 0.0 65.50849128421257 109.60732223027705 0.0 67.19212458697075 -0.0 0.0 0.0 -2.9972157452025567 80.89295669159188 0.0 -15.651390644024659 84.82034925553853 0.0 0.0 -0.0 0.0 23.26862390347737 -94.67825881763429 0.0 37.74151849099379 -42.14733279004909 0.0 0.0 -0.0 0.0
38.00191134214401 -62.91244924068451 0.02316441386938095 0.5305018441875435 -26.703309271768997 0.0 -0.0 0.0 0.0 7.894847470555132 -53.53073640344387 0.0 -0.0 0.0 0.0 -89.11668215207767 0.0 -10.672430920630354 -84.68420235755785 0.0 21.019370912810402 0.0 0.0 0.0 72.58581628056938 0.0 -35.46505993426252 68.22200890609788 0.0 1.0149936583962769 -0.0 0.0 0.0 47.467847875879876 84.69608820618038 0.0 -11.333801866546144 104.70778226570364 0.0 0.0 -0.0 0.0 -23.513359303749734 81.47465594933347 0.0 -6.023779795789712 90.82479710535087 0.0 0.0 -0.0 0.0
38.43864947557449 -64.24328684806824 0.02145916223526001 0.6032768284289152 -29.7281927539791 0.0 -0.0 0.0 0.0 17.188095364388495 -82.63402488287271 0.0 -0.0 0.0 0.0 -81.52082731640773 0.0 -69.96620940495795 -101.4659636142541 0.0 15.012091625152621 0.0 0.0 0.0 47.68943965164947 0.0 24.499783093291747 60.69458270662291 0.0 67.20760482026428 -0.0 0.0 0.0 47.61644961117618 -133.71670887355285 0.0 -63.95435998201656 -80.61905514050066 -0.0 0.0 -0.0 0.0 -114.35404219990639 8.896388373989756 0.0 22.460631874165944 -86.68403053532171 0.0 0.0 -0.0 0.0
40.199486911296844 -64.75638151168823 0.010678544640541077 0.7513420446723111 12.975834052912278 -0.0 -0.0 0.0 0.0 7.275561230953562 -84.67969975188053 0.0 -0.0 0.0 0.0 -63.18284619555709 0.0 -84.1079962884596 -113.06581209654365 0.0 -35.790183538965 0.0 0.0 0.0 62.51211356088073 0.0 15.107840310140105 36.13782521529228 0.0 85.1175400066186 -0.0 0.0 0.0 -45.111888994435326 -65.54915081461041 -0.0 6.628206748648537 5.92478160269899 0.0 0.0 -0.0 0.0 -31.03622111432265 -47.95186539901058 -0.0 1.2723123632425566 6.134742442165107 0.0 0.0 -0.0 0.0
37.67095357179642 -65.49280285835266 0.013830233365297318 1.1738854038328936 6.330471181300189 -0.0 -0.0 0.0 0.0 20.208459379058574 71.29918809758775 -0.0 -0.0 0.0 0.0 -76.35766458704451 0.0 -65.16887327441452 -30.516482122292594 0.0 -97.0254676207809 0.0 0.0 0.0 49.892736698254666 0.0 35.25752897290382 38.992248851318806 0.0 94.46647589694714 -0.0 0.0 0.0 15.12700754708968 -109.93407661770598 0.0 -4.890967594543002 11.847497210554991 0.0 0.0 -0.0 0.0 -19.602123858130692 -76.21987188039189 -0.0 15.548965913646732 39.83849618111249 0.0 0.0 -0.0 0.0
36.56114786863327 -65.41866064071655 0.011202262248843908 -2.947788988856958 15.161125499812957 0.0 -0.0 0.0 0.0 15.91751887085264 65.16910066966794 -0.0 -0.0 0.0 0.0 -85.51778418726086 0.0 -44.113227419908604 -21.686843268535867 0.0 -93.758059199421 0.0 0.0 0.0 59.15998055013542 0.0 28.882023146502487 28.82142157931176 0.0 94.66405214643966 -0.0 0.0 0.0 22.160161891860028 -92.85882963842275 0.0 27.098274066362148 54.97515460623719 0.0 0.0 -0.0 0.0 -3.4482024049160263 -73.07882409905392 -0.0 9.824561854072632 21.966701247743288 0.0 0.0 -0.0 0.0
37.02363669872284 -66.22239649295807 0.011557899415493011 -2.686748437504231 20.546425390450494 0.0 -0.0 0.0 0.0 17.238432857685794 58.44932556713443 -0.0 -0.0 0.0 0.0 -85.22364962225595 0.0 -21.68089087657999 -49.370107818181786 0.0 -101.39094824198845 0.0 0.0 0.0 43.842976109577066 0.0 43.592321875092445 25.510689347524785 0.0 95.46175428760786 -0.0 0.0 0.0 52.226471617085686 -77.25532509113374 0.0 16.449908295622038 80.49802000665491 0.0 0.0 -0.0 0.0 -36.60911590320063 -89.59443260652958 -0.0 -77.51228230321277 -61.41674256549012 -0.0 0.0 -0.0 0.0
37.38522231578827 -66.09154641628265 0.021137483417987823 -2.408956298087151 -25.278326891308463 0.0 -0.0 0.0 0.0 22.629787536416746 40.6967802096482 -0.0 -0.0 0.0 0.0 -46.57177504744716 0.0 -70.59785489321777 -46.7238467629125 0.0 -78.88191155474817 0.0 0.0 0.0 42.22114360067583 0.0 47.99473169907398 14.042846417701384 0.0 92.11421444550632 -0.0 0.0 0.0 17.46949148373085 -92.6848842562931 0.0 18.297183588980378 -81.191728498386 0.0 0.0 -0.0 0.0 -21.17214441151002 -97.00212470046385 -0.0 -25.505112132829563 -70.75508374095713 -0.0 0.0 -0.0 0.0
40.841031074523926 -65.36903381347656 0.02206619828939438 -0.7664186568267091 -27.381130993242863 0.0 -0.0 0.0 0.0 9.997798739238991 -4.2598576611764445 0.0 -0.0 0.0 0.0 -18.907436637424524 0.0 -38.34953104820804 -19.77131962805859 0.0 -33.82805743888671 0.0 0.0 0.0 34.98827577418352 0.0 102.89851166775712 -8.819519322397637 0.0 105.30810650415026 -0.0 0.0 0.0 39.46185193339137 -119.0064576114289 0.0 14.618212567048102 -51.96632687298982 0.0 0.0 -0.0 0.0 41.39291341984497 -169.89184057015774 0.0 13.356368866782105 -82.07609041374744 0.0 0.0 -0.0 0.0
